<mxfile host="app.diagrams.net" modified="2024-08-09T09:21:04.538Z" agent="Mozilla/5.0 (Windows NT 10.0; Win64; x64) AppleWebKit/537.36 (KHTML, like Gecko) Chrome/126.0.0.0 Safari/537.36 Edg/126.0.0.0" version="23.1.7" etag="muEnR2V_W8qur8D-aivM" type="github">
  <diagram name="Page-1" id="mHPHkEHHO4xcJLAudchg">
    <mxGraphModel>
      <root>
        <mxCell id="0" />
        <mxCell id="1" parent="0" />
      </root>
    </mxGraphModel>
  </diagram>
</mxfile>
